<?xml version="1.0" encoding="UTF-8"?>
<svg id="Camada_1" data-name="Camada 1" xmlns="http://www.w3.org/2000/svg" viewBox="0 0 250 250">
  <defs>
    <style>
      .cls-1 {
        fill: #fff;
      }
    </style>
  </defs>
  <path class="cls-1" d="m0,0v71.07C0,108.65,10.1,143.62,27.47,172.8c2.7,4.54,5.56,8.93,8.6,13.18,0,.01.02.03.03.04l43.02-118.2h-41.63v-30.35h124.25s34.14-1.11,46.42,20.33c.07.12.14.25.21.37,2.57,4.63,4.13,10.3,4.13,17.23,0,7.62-1.33,14.98-4.13,22.01-4.46,11.24-12.66,21.63-25.14,30.86-20.29,15.01-51.88,26.97-97.08,34.54l-20.23,55.57c.97.82,1.95,1.63,2.94,2.42,16.66,13.39,35.64,23.42,56.14,29.2,40.52-11.42,75.09-39.44,97.51-77.2,17.38-29.18,27.48-64.15,27.48-101.74V0H0Z"/>
  <path class="cls-1" d="m161.75,87.05s3.36-19.23-20.33-19.23h-20.69l-26.43,72.61s67.45-11.55,67.45-53.38Z"/>
</svg>