<?xml version="1.0" encoding="UTF-8"?>
<svg id="Camada_1" data-name="Camada 1" xmlns="http://www.w3.org/2000/svg" viewBox="0 0 1728.67 250">
  <defs>
    <style>
      .cls-1 {
        fill: #fff;
      }

      .cls-2 {
        fill: #ff7f00;
      }
    </style>
  </defs>
  <g>
    <path class="cls-2" d="m0,0v71.07C0,108.65,10.1,143.62,27.47,172.8c2.7,4.54,5.56,8.93,8.6,13.18,0,.01.02.03.03.04l43.02-118.2h-41.63v-30.35h124.25s34.14-1.11,46.42,20.33c.07.12.14.25.21.37,2.57,4.63,4.13,10.3,4.13,17.23,0,7.62-1.33,14.98-4.13,22.01-4.46,11.24-12.66,21.63-25.14,30.86-20.29,15.01-51.88,26.97-97.08,34.54l-20.23,55.57c.97.82,1.95,1.63,2.94,2.42,16.66,13.39,35.64,23.42,56.14,29.2,40.52-11.42,75.09-39.44,97.51-77.2,17.38-29.18,27.48-64.15,27.48-101.74V0H0Z"/>
    <path class="cls-2" d="m161.75,87.05s3.36-19.23-20.33-19.23h-20.69l-26.43,72.61s67.45-11.55,67.45-53.38Z"/>
  </g>
  <g>
    <path class="cls-1" d="m1143.45,50v38.23h-66.79v111.77h-47.9v-111.77h-66.79v-38.23h181.48Z"/>
    <path class="cls-1" d="m1283.78,174.59h-99.17l-12.82,25.41h-52.17l79.39-150h71.06l78.49,150h-51.95l-12.82-25.41Zm-44.98-89.73h-9l-29.01,56.9h67.02l-29.01-56.9Z"/>
    <path class="cls-1" d="m1435.36,50l78.49,111.77h4.72l-1.12-111.77h46.55v150h-79.39l-78.94-111.99h-4.95l1.12,111.99h-46.55V50h80.06Z"/>
    <path class="cls-1" d="m1634.66,123.54l86.81-74.44h-69.94l-59.37,55.32-21.42,19.96,21.42,18.27,67.25,57.34h69.27l-94.01-76.46Z"/>
    <path class="cls-1" d="m1143.45,50v38.23h-66.79v111.77h-47.9v-111.77h-66.79v-38.23h181.48Z"/>
    <path class="cls-1" d="m1283.78,174.59h-99.17l-12.82,25.41h-52.17l79.39-150h71.06l78.49,150h-51.95l-12.82-25.41Zm-44.98-89.73h-9l-29.01,56.9h67.02l-29.01-56.9Z"/>
    <path class="cls-1" d="m1435.36,50l78.49,111.77h4.72l-1.12-111.77h46.55v150h-79.39l-78.94-111.99h-4.95l1.12,111.99h-46.55V50h80.06Z"/>
    <path class="cls-1" d="m1634.66,123.54l86.81-74.44h-69.94l-59.37,55.32-21.42,19.96,21.42,18.27,67.25,57.34h69.27l-94.01-76.46Z"/>
  </g>
  <g>
    <path class="cls-2" d="m348.42,50h102.77c28.34,0,32.38.22,40.7,1.35,28.34,4.27,36.43,16.42,36.43,54.87,0,33.28-6.07,46.33-24.06,52.85-10.12,3.37-20.24,4.27-52.62,4.27h-57.57v36.66h-45.65V50Zm102.77,75.79c21.14-.23,22.04-.23,25.86-2.47,4.27-2.7,5.62-6.75,5.62-17.09s-2.02-15.29-7.87-17.32c-3.15-1.12-3.6-1.12-23.61-1.35h-57.12v38.23h57.12Z"/>
    <path class="cls-2" d="m543.39,50h110.42q51.72,0,61.39,5.85c11.47,6.97,14.84,16.87,14.84,42.95,0,22.26-2.25,30.81-10.34,36.88-4.27,3.37-8.55,4.95-17.54,6.3,23.16,2.7,27.21,9.45,26.31,44.08v13.94h-44.98v-7.87c0-16.87-.9-22.26-4.5-26.09-3.15-3.6-6.52-4.05-25.41-4.05h-64.54v38.01h-45.65V50Zm109.97,74.44q22.94-.45,26.09-2.7c3.6-2.25,4.95-6.75,4.95-16.19,0-10.12-1.8-14.39-6.52-16.42-3.15-1.35-3.82-1.35-24.51-1.57h-64.32v36.88h64.32Z"/>
    <path class="cls-2" d="m936.15,58.14c11.46,8.77,14.83,23.82,14.83,66.75s-3.37,58.21-14.83,66.97c-11.46,8.76-25.62,10.34-87.65,10.34s-77.09-1.57-88.55-10.34c-11.69-8.99-14.83-23.82-14.83-67.87s3.37-57.08,14.83-65.85c11.46-8.76,25.4-10.34,88.1-10.34s76.64,1.57,88.1,10.34Zm-141.81,37.98c-2.7,5.17-3.6,13.71-3.6,32.81s1.35,24.72,6.74,28.99c6.07,4.72,13.26,5.39,51.02,5.39s44.05-.9,50.12-5.39c5.17-4.05,6.74-10.56,6.74-28.77,0-22.25-1.35-30.79-5.39-35.73-5.17-6.07-10.11-6.74-51.92-6.74-44.95,0-49.22.67-53.71,9.44Z"/>
  </g>
</svg>