<?xml version="1.0" encoding="utf-8"?>
<!-- Generator: Adobe Illustrator 27.7.0, SVG Export Plug-In . SVG Version: 6.00 Build 0)  -->
<svg version="1.1" id="Camada_4" xmlns="http://www.w3.org/2000/svg" xmlns:xlink="http://www.w3.org/1999/xlink" x="0px" y="0px"
	 viewBox="0 0 2538.3 1270.4" style="enable-background:new 0 0 2538.3 1270.4;" xml:space="preserve">
<style type="text/css">
	.st0{opacity:0.2;fill:none;stroke:#FFFFFF;stroke-width:2;stroke-miterlimit:10;}
</style>
<path class="st0" d="M159.5,1v45.1c0,23.8-6.4,46-17.4,64.5c-14.2,23.9-36.1,41.7-61.8,49c-13-3.7-25-10-35.6-18.5
	c-7.8-6.3-14.8-13.7-20.8-22.1c-1.9-2.7-3.8-5.5-5.5-8.4C7.4,92.1,1,69.9,1,46.1V1H159.5z"/>
<path class="st0" d="M318.1,159.6v-45.1c0-23.8-6.4-46-17.4-64.5c-14.2-23.9-36.1-41.7-61.8-49c-13,3.7-25,10-35.6,18.5
	c-7.8,6.3-14.8,13.7-20.8,22.1c-1.9,2.7-3.8,5.5-5.5,8.4c-11,18.5-17.4,40.7-17.4,64.5v45.1L318.1,159.6L318.1,159.6z"/>
<path class="st0" d="M318.1,1h45.1c23.8,0,46,6.4,64.5,17.4c23.9,14.2,41.7,36.1,49,61.8c-3.7,13-10,25-18.5,35.6
	c-6.3,7.8-13.7,14.8-22.1,20.8c-2.7,1.9-5.5,3.8-8.4,5.5c-18.5,11-40.7,17.4-64.5,17.4h-45.1L318.1,1L318.1,1z"/>
<path class="st0" d="M476.6,1v45.1c0,23.8,6.4,46,17.4,64.5c14.2,23.9,36.1,41.7,61.8,49c13-3.7,25-10,35.6-18.5
	c7.8-6.3,14.8-13.7,20.8-22.1c1.9-2.7,3.8-5.5,5.5-8.4c11-18.5,17.4-40.7,17.4-64.5V1H476.6z"/>
<path class="st0" d="M635,159.6v-45.1c0-23.8,6.4-46,17.4-64.5c14.2-23.9,36.1-41.7,61.8-49c13,3.7,25,10,35.6,18.5
	c7.8,6.3,14.8,13.7,20.8,22.1c1.9,2.7,3.8,5.5,5.5,8.4c11,18.5,17.4,40.7,17.4,64.5v45.1L635,159.6L635,159.6z"/>
<path class="st0" d="M952.1,1H907c-23.8,0-46,6.4-64.5,17.4c-23.9,14.2-41.7,36.1-49,61.8c3.7,13,10,25,18.5,35.6
	c6.3,7.8,13.7,14.8,22.1,20.8c2.7,1.9,5.5,3.8,8.4,5.5c18.5,11,40.7,17.4,64.5,17.4h45.1L952.1,1L952.1,1z"/>
<path class="st0" d="M1110.6,1v45.1c0,23.8-6.4,46-17.4,64.5c-14.2,23.9-36.1,41.7-61.8,49c-13-3.7-25-10-35.6-18.5
	C988,134.8,981,127.3,975,119c-1.9-2.7-3.8-5.5-5.5-8.4c-11-18.5-17.4-40.7-17.4-64.5V1H1110.6z"/>
<path class="st0" d="M1269.2,159.6v-45.1c0-23.8-6.4-46-17.4-64.5c-14.2-23.9-36.1-41.7-61.8-49c-13,3.7-25,10-35.6,18.5
	c-7.8,6.3-14.8,13.7-20.8,22.1c-1.9,2.7-3.8,5.5-5.5,8.4c-11,18.5-17.4,40.7-17.4,64.5v45.1L1269.2,159.6L1269.2,159.6z"/>
<path class="st0" d="M159.5,159.6v45.1c0,23.8-6.4,46-17.4,64.5c-14.2,23.9-36.1,41.7-61.8,49c-13-3.7-25-10-35.6-18.5
	c-7.8-6.3-14.8-13.7-20.8-22.1c-1.9-2.7-3.8-5.5-5.5-8.4C7.4,250.6,1,228.5,1,204.6v-45.1L159.5,159.6L159.5,159.6z"/>
<path class="st0" d="M318.1,318.1V273c0-23.8-6.4-46-17.4-64.5c-14.2-23.9-36.1-41.7-61.8-48.9c-13,3.7-25,10-35.6,18.5
	c-7.8,6.3-14.8,13.7-20.8,22.1c-1.9,2.7-3.8,5.5-5.5,8.4c-11,18.5-17.4,40.7-17.4,64.5v45.1L318.1,318.1L318.1,318.1z"/>
<path class="st0" d="M476.6,159.6h-45.1c-23.8,0-46,6.4-64.5,17.4c-23.9,14.2-41.7,36.1-49,61.8c3.7,13,10,25,18.5,35.6
	c6.3,7.8,13.7,14.8,22.1,20.8c2.7,1.9,5.5,3.8,8.4,5.5c18.5,11,40.7,17.4,64.5,17.4h45.1L476.6,159.6L476.6,159.6z"/>
<path class="st0" d="M476.6,159.6v45.1c0,23.8,6.4,46,17.4,64.5c14.2,23.9,36.1,41.7,61.8,49c13-3.7,25-10,35.6-18.5
	c7.8-6.3,14.8-13.7,20.8-22.1c1.9-2.7,3.8-5.5,5.5-8.4c11-18.5,17.4-40.7,17.4-64.5v-45.1L476.6,159.6L476.6,159.6z"/>
<path class="st0" d="M635,318.1V273c0-23.8,6.4-46,17.4-64.5c14.2-23.9,36.1-41.7,61.8-48.9c13,3.7,25,10,35.6,18.5
	c7.8,6.3,14.8,13.7,20.8,22.1c1.9,2.7,3.8,5.5,5.5,8.4c11,18.5,17.4,40.7,17.4,64.5v45.1L635,318.1L635,318.1z"/>
<path class="st0" d="M793.6,159.6h45.1c23.8,0,46,6.4,64.5,17.4c23.9,14.2,41.7,36.1,49,61.8c-3.7,13-10,25-18.5,35.6
	c-6.3,7.8-13.7,14.8-22.1,20.8c-2.7,1.9-5.5,3.8-8.4,5.5c-18.5,11-40.7,17.4-64.5,17.4h-45.1L793.6,159.6L793.6,159.6z"/>
<path class="st0" d="M1110.6,159.6v45.1c0,23.8-6.4,46-17.4,64.5c-14.2,23.9-36.1,41.7-61.8,49c-13-3.7-25-10-35.6-18.5
	c-7.8-6.3-14.8-13.7-20.8-22.1c-1.9-2.7-3.8-5.5-5.5-8.4c-11-18.5-17.4-40.7-17.4-64.5v-45.1L1110.6,159.6L1110.6,159.6z"/>
<path class="st0" d="M1269.2,318.1V273c0-23.8-6.4-46-17.4-64.5c-14.2-23.9-36.1-41.7-61.8-48.9c-13,3.7-25,10-35.6,18.5
	c-7.8,6.3-14.8,13.7-20.8,22.1c-1.9,2.7-3.8,5.5-5.5,8.4c-11,18.5-17.4,40.7-17.4,64.5v45.1L1269.2,318.1L1269.2,318.1z"/>
<path class="st0" d="M159.5,318.1v45.1c0,23.8-6.4,46-17.4,64.5c-14.2,23.9-36.1,41.7-61.8,49c-13-3.7-25-10-35.6-18.5
	c-7.8-6.3-14.8-13.7-20.8-22.1c-1.9-2.7-3.8-5.5-5.5-8.4C7.4,409.2,1,387,1,363.2v-45.1L159.5,318.1L159.5,318.1z"/>
<path class="st0" d="M318.1,476.6v-45.1c0-23.8-6.4-46-17.4-64.5c-14.2-23.9-36.1-41.7-61.8-49c-13,3.7-25,10-35.6,18.5
	c-7.8,6.3-14.8,13.7-20.8,22.1c-1.9,2.7-3.8,5.5-5.5,8.4c-11,18.5-17.4,40.7-17.4,64.5v45.1L318.1,476.6L318.1,476.6z"/>
<path class="st0" d="M318.1,318.1h45.1c23.8,0,46,6.4,64.5,17.4c23.9,14.2,41.7,36.1,49,61.8c-3.7,13-10,25-18.5,35.6
	c-6.3,7.8-13.7,14.8-22.1,20.8c-2.7,1.9-5.5,3.8-8.4,5.5c-18.5,11-40.7,17.4-64.5,17.4h-45.1L318.1,318.1L318.1,318.1z"/>
<path class="st0" d="M476.6,318.1v45.1c0,23.8,6.4,46,17.4,64.5c14.2,23.9,36.1,41.7,61.8,49c13-3.7,25-10,35.6-18.5
	c7.8-6.3,14.8-13.7,20.8-22.1c1.9-2.7,3.8-5.5,5.5-8.4c11-18.5,17.4-40.7,17.4-64.5v-45.1L476.6,318.1L476.6,318.1z"/>
<path class="st0" d="M635,476.6v-45.1c0-23.8,6.4-46,17.4-64.5c14.2-23.9,36.1-41.7,61.8-49c13,3.7,25,10,35.6,18.5
	c7.8,6.3,14.8,13.7,20.8,22.1c1.9,2.7,3.8,5.5,5.5,8.4c11,18.5,17.4,40.7,17.4,64.5v45.1L635,476.6L635,476.6z"/>
<path class="st0" d="M952.1,318.1H907c-23.8,0-46,6.4-64.5,17.4c-23.9,14.2-41.7,36.1-49,61.8c3.7,13,10,25,18.5,35.6
	c6.3,7.8,13.7,14.8,22.1,20.8c2.7,1.9,5.5,3.8,8.4,5.5c18.5,11,40.7,17.4,64.5,17.4h45.1L952.1,318.1L952.1,318.1z"/>
<path class="st0" d="M1110.6,318.1v45.1c0,23.8-6.4,46-17.4,64.5c-14.2,23.9-36.1,41.7-61.8,49c-13-3.7-25-10-35.6-18.5
	c-7.8-6.3-14.8-13.7-20.8-22.1c-1.9-2.7-3.8-5.5-5.5-8.4c-11-18.5-17.4-40.7-17.4-64.5v-45.1L1110.6,318.1L1110.6,318.1z"/>
<path class="st0" d="M1269.2,476.6v-45.1c0-23.8-6.4-46-17.4-64.5c-14.2-23.9-36.1-41.7-61.8-49c-13,3.7-25,10-35.6,18.5
	c-7.8,6.3-14.8,13.7-20.8,22.1c-1.9,2.7-3.8,5.5-5.5,8.4c-11,18.5-17.4,40.7-17.4,64.5v45.1L1269.2,476.6L1269.2,476.6z"/>
<path class="st0" d="M159.5,476.6v45.1c0,23.8-6.4,46-17.4,64.5c-14.2,23.9-36.1,41.7-61.8,49c-13-3.7-25-10-35.6-18.5
	c-7.8-6.3-14.8-13.7-20.8-22.1c-1.9-2.7-3.8-5.5-5.5-8.4C7.4,567.7,1,545.5,1,521.7v-45.1L159.5,476.6L159.5,476.6z"/>
<path class="st0" d="M318.1,635.2v-45.1c0-23.8-6.4-46-17.4-64.5c-14.2-23.9-36.1-41.7-61.8-49c-13,3.7-25,10-35.6,18.5
	c-7.8,6.3-14.8,13.7-20.8,22.1c-1.9,2.7-3.8,5.5-5.5,8.4c-11,18.5-17.4,40.7-17.4,64.5v45.1L318.1,635.2L318.1,635.2z"/>
<path class="st0" d="M476.6,476.6h-45.1c-23.8,0-46,6.4-64.5,17.4c-23.9,14.2-41.7,36.1-49,61.8c3.7,13,10,25,18.5,35.6
	c6.3,7.8,13.7,14.8,22.1,20.8c2.7,1.9,5.5,3.8,8.4,5.5c18.5,11,40.7,17.4,64.5,17.4h45.1L476.6,476.6L476.6,476.6z"/>
<path class="st0" d="M476.6,476.6v45.1c0,23.8,6.4,46,17.4,64.5c14.2,23.9,36.1,41.7,61.8,49c13-3.7,25-10,35.6-18.5
	c7.8-6.3,14.8-13.7,20.8-22.1c1.9-2.7,3.8-5.5,5.5-8.4c11-18.5,17.4-40.7,17.4-64.5v-45.1L476.6,476.6L476.6,476.6z"/>
<path class="st0" d="M635,635.2v-45.1c0-23.8,6.4-46,17.4-64.5c14.2-23.9,36.1-41.7,61.8-49c13,3.7,25,10,35.6,18.5
	c7.8,6.3,14.8,13.7,20.8,22.1c1.9,2.7,3.8,5.5,5.5,8.4c11,18.5,17.4,40.7,17.4,64.5v45.1L635,635.2L635,635.2z"/>
<path class="st0" d="M793.6,476.6h45.1c23.8,0,46,6.4,64.5,17.4c23.9,14.2,41.7,36.1,49,61.8c-3.7,13-10,25-18.5,35.6
	c-6.3,7.8-13.7,14.8-22.1,20.8c-2.7,1.9-5.5,3.8-8.4,5.5c-18.5,11-40.7,17.4-64.5,17.4h-45.1L793.6,476.6L793.6,476.6z"/>
<path class="st0" d="M1110.6,476.6v45.1c0,23.8-6.4,46-17.4,64.5c-14.2,23.9-36.1,41.7-61.8,49c-13-3.7-25-10-35.6-18.5
	C988,610.4,981,603,975,594.6c-1.9-2.7-3.8-5.5-5.5-8.4c-11-18.5-17.4-40.7-17.4-64.5v-45.1L1110.6,476.6L1110.6,476.6z"/>
<path class="st0" d="M1269.2,635.2v-45.1c0-23.8-6.4-46-17.4-64.5c-14.2-23.9-36.1-41.7-61.8-49c-13,3.7-25,10-35.6,18.5
	c-7.8,6.3-14.8,13.7-20.8,22.1c-1.9,2.7-3.8,5.5-5.5,8.4c-11,18.5-17.4,40.7-17.4,64.5v45.1L1269.2,635.2L1269.2,635.2z"/>
<path class="st0" d="M159.5,635.2v45.1c0,23.8-6.4,46-17.4,64.5c-14.2,23.9-36.1,41.7-61.8,49c-13-3.7-25-10-35.6-18.5
	c-7.8-6.3-14.8-13.7-20.8-22.1c-1.9-2.7-3.8-5.5-5.5-8.4C7.4,726.3,1,704.1,1,680.2v-45.1L159.5,635.2L159.5,635.2z"/>
<path class="st0" d="M318.1,793.7v-45.1c0-23.8-6.4-46-17.4-64.5c-14.2-23.9-36.1-41.7-61.8-49c-13,3.7-25,10-35.6,18.5
	c-7.8,6.3-14.8,13.7-20.8,22.1c-1.9,2.7-3.8,5.5-5.5,8.4c-11,18.5-17.4,40.7-17.4,64.5v45.1L318.1,793.7L318.1,793.7z"/>
<path class="st0" d="M318.1,635.2h45.1c23.8,0,46,6.4,64.5,17.4c23.9,14.2,41.7,36.1,49,61.8c-3.7,13-10,25-18.5,35.6
	c-6.3,7.8-13.7,14.8-22.1,20.8c-2.7,1.9-5.5,3.8-8.4,5.5c-18.5,11-40.7,17.4-64.5,17.4h-45.1L318.1,635.2L318.1,635.2z"/>
<path class="st0" d="M476.6,635.2v45.1c0,23.8,6.4,46,17.4,64.5c14.2,23.9,36.1,41.7,61.8,49c13-3.7,25-10,35.6-18.5
	c7.8-6.3,14.8-13.7,20.8-22.1c1.9-2.7,3.8-5.5,5.5-8.4c11-18.5,17.4-40.7,17.4-64.5v-45.1L476.6,635.2L476.6,635.2z"/>
<path class="st0" d="M635,793.7v-45.1c0-23.8,6.4-46,17.4-64.5c14.2-23.9,36.1-41.7,61.8-49c13,3.7,25,10,35.6,18.5
	c7.8,6.3,14.8,13.7,20.8,22.1c1.9,2.7,3.8,5.5,5.5,8.4c11,18.5,17.4,40.7,17.4,64.5v45.1L635,793.7L635,793.7z"/>
<path class="st0" d="M952.1,635.2H907c-23.8,0-46,6.4-64.5,17.4c-23.9,14.2-41.7,36.1-49,61.8c3.7,13,10,25,18.5,35.6
	c6.3,7.8,13.7,14.8,22.1,20.8c2.7,1.9,5.5,3.8,8.4,5.5c18.5,11,40.7,17.4,64.5,17.4h45.1L952.1,635.2L952.1,635.2z"/>
<path class="st0" d="M1110.6,635.2v45.1c0,23.8-6.4,46-17.4,64.5c-14.2,23.9-36.1,41.7-61.8,49c-13-3.7-25-10-35.6-18.5
	c-7.8-6.3-14.8-13.7-20.8-22.1c-1.9-2.7-3.8-5.5-5.5-8.4c-11-18.5-17.4-40.7-17.4-64.5v-45.1L1110.6,635.2L1110.6,635.2z"/>
<path class="st0" d="M1269.2,793.7v-45.1c0-23.8-6.4-46-17.4-64.5c-14.2-23.9-36.1-41.7-61.8-49c-13,3.7-25,10-35.6,18.5
	c-7.8,6.3-14.8,13.7-20.8,22.1c-1.9,2.7-3.8,5.5-5.5,8.4c-11,18.5-17.4,40.7-17.4,64.5v45.1L1269.2,793.7L1269.2,793.7z"/>
<path class="st0" d="M159.5,793.7v45.1c0,23.8-6.4,46-17.4,64.5c-14.2,23.9-36.1,41.7-61.8,49c-13-3.7-25-10-35.6-18.5
	c-7.8-6.3-14.8-13.7-20.8-22.1c-1.9-2.7-3.8-5.5-5.5-8.4C7.4,884.8,1,862.6,1,838.8v-45.1L159.5,793.7L159.5,793.7z"/>
<path class="st0" d="M318.1,952.3v-45.1c0-23.8-6.4-46-17.4-64.5c-14.2-23.9-36.1-41.7-61.8-49c-13,3.7-25,10-35.6,18.5
	c-7.8,6.3-14.8,13.7-20.8,22.1c-1.9,2.7-3.8,5.5-5.5,8.4c-11,18.5-17.4,40.7-17.4,64.5v45.1L318.1,952.3L318.1,952.3z"/>
<path class="st0" d="M476.6,793.7h-45.1c-23.8,0-46,6.4-64.5,17.4c-23.9,14.2-41.7,36.1-49,61.8c3.7,13,10,25,18.5,35.6
	c6.3,7.8,13.7,14.8,22.1,20.8c2.7,1.9,5.5,3.8,8.4,5.5c18.5,11,40.7,17.4,64.5,17.4h45.1L476.6,793.7L476.6,793.7z"/>
<path class="st0" d="M476.6,793.7v45.1c0,23.8,6.4,46,17.4,64.5c14.2,23.9,36.1,41.7,61.8,49c13-3.7,25-10,35.6-18.5
	c7.8-6.3,14.8-13.7,20.8-22.1c1.9-2.7,3.8-5.5,5.5-8.4c11-18.5,17.4-40.7,17.4-64.5v-45.1L476.6,793.7L476.6,793.7z"/>
<path class="st0" d="M635,952.3v-45.1c0-23.8,6.4-46,17.4-64.5c14.2-23.9,36.1-41.7,61.8-49c13,3.7,25,10,35.6,18.5
	c7.8,6.3,14.8,13.7,20.8,22.1c1.9,2.7,3.8,5.5,5.5,8.4c11,18.5,17.4,40.7,17.4,64.5v45.1L635,952.3L635,952.3z"/>
<path class="st0" d="M793.6,793.7h45.1c23.8,0,46,6.4,64.5,17.4c23.9,14.2,41.7,36.1,49,61.8c-3.7,13-10,25-18.5,35.6
	c-6.3,7.8-13.7,14.8-22.1,20.8c-2.7,1.9-5.5,3.8-8.4,5.5c-18.5,11-40.7,17.4-64.5,17.4h-45.1L793.6,793.7L793.6,793.7z"/>
<path class="st0" d="M1110.6,793.7v45.1c0,23.8-6.4,46-17.4,64.5c-14.2,23.9-36.1,41.7-61.8,49c-13-3.7-25-10-35.6-18.5
	C988,927.5,981,920,975,911.7c-1.9-2.7-3.8-5.5-5.5-8.4c-11-18.5-17.4-40.7-17.4-64.5v-45.1L1110.6,793.7L1110.6,793.7z"/>
<path class="st0" d="M1269.2,952.3v-45.1c0-23.8-6.4-46-17.4-64.5c-14.2-23.9-36.1-41.7-61.8-49c-13,3.7-25,10-35.6,18.5
	c-7.8,6.3-14.8,13.7-20.8,22.1c-1.9,2.7-3.8,5.5-5.5,8.4c-11,18.5-17.4,40.7-17.4,64.5v45.1L1269.2,952.3L1269.2,952.3z"/>
<path class="st0" d="M159.5,952.3v45.1c0,23.8-6.4,46-17.4,64.5c-14.2,23.9-36.1,41.7-61.8,48.9c-13-3.7-25-10-35.6-18.5
	c-7.8-6.3-14.8-13.7-20.8-22.1c-1.9-2.7-3.8-5.5-5.5-8.4C7.4,1043.3,1,1021.2,1,997.3v-45.1L159.5,952.3L159.5,952.3z"/>
<path class="st0" d="M318.1,1110.8v-45.1c0-23.8-6.4-46-17.4-64.5c-14.2-23.9-36.1-41.7-61.8-49c-13,3.7-25,10-35.6,18.5
	c-7.8,6.3-14.8,13.7-20.8,22.1c-1.9,2.7-3.8,5.5-5.5,8.4c-11,18.5-17.4,40.7-17.4,64.5v45.1L318.1,1110.8L318.1,1110.8z"/>
<path class="st0" d="M318.1,952.3h45.1c23.8,0,46,6.4,64.5,17.4c23.9,14.2,41.7,36.1,49,61.8c-3.7,13-10,25-18.5,35.6
	c-6.3,7.8-13.7,14.8-22.1,20.8c-2.7,1.9-5.5,3.8-8.4,5.5c-18.5,11-40.7,17.4-64.5,17.4h-45.1L318.1,952.3L318.1,952.3z"/>
<path class="st0" d="M476.6,952.3v45.1c0,23.8,6.4,46,17.4,64.5c14.2,23.9,36.1,41.7,61.8,48.9c13-3.7,25-10,35.6-18.5
	c7.8-6.3,14.8-13.7,20.8-22.1c1.9-2.7,3.8-5.5,5.5-8.4c11-18.5,17.4-40.7,17.4-64.5v-45.1L476.6,952.3L476.6,952.3z"/>
<path class="st0" d="M635,1110.8v-45.1c0-23.8,6.4-46,17.4-64.5c14.2-23.9,36.1-41.7,61.8-49c13,3.7,25,10,35.6,18.5
	c7.8,6.3,14.8,13.7,20.8,22.1c1.9,2.7,3.8,5.5,5.5,8.4c11,18.5,17.4,40.7,17.4,64.5v45.1L635,1110.8L635,1110.8z"/>
<path class="st0" d="M952.1,952.3H907c-23.8,0-46,6.4-64.5,17.4c-23.9,14.2-41.7,36.1-49,61.8c3.7,13,10,25,18.5,35.6
	c6.3,7.8,13.7,14.8,22.1,20.8c2.7,1.9,5.5,3.8,8.4,5.5c18.5,11,40.7,17.4,64.5,17.4h45.1L952.1,952.3L952.1,952.3z"/>
<path class="st0" d="M1110.6,952.3v45.1c0,23.8-6.4,46-17.4,64.5c-14.2,23.9-36.1,41.7-61.8,48.9c-13-3.7-25-10-35.6-18.5
	c-7.8-6.3-14.8-13.7-20.8-22.1c-1.9-2.7-3.8-5.5-5.5-8.4c-11-18.5-17.4-40.7-17.4-64.5v-45.1L1110.6,952.3L1110.6,952.3z"/>
<path class="st0" d="M1269.2,1110.8v-45.1c0-23.8-6.4-46-17.4-64.5c-14.2-23.9-36.1-41.7-61.8-49c-13,3.7-25,10-35.6,18.5
	c-7.8,6.3-14.8,13.7-20.8,22.1c-1.9,2.7-3.8,5.5-5.5,8.4c-11,18.5-17.4,40.7-17.4,64.5v45.1L1269.2,1110.8L1269.2,1110.8z"/>
<path class="st0" d="M159.5,1110.8v45.1c0,23.8-6.4,46-17.4,64.5c-14.2,23.9-36.1,41.7-61.8,48.9c-13-3.7-25-10-35.6-18.5
	c-7.8-6.3-14.8-13.7-20.8-22.1c-1.9-2.7-3.8-5.5-5.5-8.4c-11-18.5-17.4-40.7-17.4-64.5v-45.1L159.5,1110.8L159.5,1110.8z"/>
<path class="st0" d="M318.1,1269.3v-45.1c0-23.8-6.4-46-17.4-64.5c-14.2-23.9-36.1-41.7-61.8-48.9c-13,3.7-25,10-35.6,18.5
	c-7.8,6.3-14.8,13.7-20.8,22.1c-1.9,2.7-3.8,5.5-5.5,8.4c-11,18.5-17.4,40.7-17.4,64.5v45.1L318.1,1269.3L318.1,1269.3z"/>
<path class="st0" d="M476.6,1110.8h-45.1c-23.8,0-46,6.4-64.5,17.4c-23.9,14.2-41.7,36.1-49,61.8c3.7,13,10,25,18.5,35.6
	c6.3,7.8,13.7,14.8,22.1,20.8c2.7,1.9,5.5,3.8,8.4,5.5c18.5,11,40.7,17.4,64.5,17.4h45.1L476.6,1110.8L476.6,1110.8z"/>
<path class="st0" d="M476.6,1110.8v45.1c0,23.8,6.4,46,17.4,64.5c14.2,23.9,36.1,41.7,61.8,48.9c13-3.7,25-10,35.6-18.5
	c7.8-6.3,14.8-13.7,20.8-22.1c1.9-2.7,3.8-5.5,5.5-8.4c11-18.5,17.4-40.7,17.4-64.5v-45.1L476.6,1110.8L476.6,1110.8z"/>
<path class="st0" d="M635,1269.3v-45.1c0-23.8,6.4-46,17.4-64.5c14.2-23.9,36.1-41.7,61.8-48.9c13,3.7,25,10,35.6,18.5
	c7.8,6.3,14.8,13.7,20.8,22.1c1.9,2.7,3.8,5.5,5.5,8.4c11,18.5,17.4,40.7,17.4,64.5v45.1L635,1269.3L635,1269.3z"/>
<path class="st0" d="M793.6,1110.8h45.1c23.8,0,46,6.4,64.5,17.4c23.9,14.2,41.7,36.1,49,61.8c-3.7,13-10,25-18.5,35.6
	c-6.3,7.8-13.7,14.8-22.1,20.8c-2.7,1.9-5.5,3.8-8.4,5.5c-18.5,11-40.7,17.4-64.5,17.4h-45.1L793.6,1110.8L793.6,1110.8z"/>
<path class="st0" d="M1110.6,1110.8v45.1c0,23.8-6.4,46-17.4,64.5c-14.2,23.9-36.1,41.7-61.8,48.9c-13-3.7-25-10-35.6-18.5
	c-7.8-6.3-14.8-13.7-20.8-22.1c-1.9-2.7-3.8-5.5-5.5-8.4c-11-18.5-17.4-40.7-17.4-64.5v-45.1L1110.6,1110.8L1110.6,1110.8z"/>
<path class="st0" d="M1269.2,1269.3v-45.1c0-23.8-6.4-46-17.4-64.5c-14.2-23.9-36.1-41.7-61.8-48.9c-13,3.7-25,10-35.6,18.5
	c-7.8,6.3-14.8,13.7-20.8,22.1c-1.9,2.7-3.8,5.5-5.5,8.4c-11,18.5-17.4,40.7-17.4,64.5v45.1L1269.2,1269.3L1269.2,1269.3z"/>
<path class="st0" d="M1427.7,1v45.1c0,23.8-6.4,46-17.4,64.5c-14.2,23.9-36.1,41.7-61.8,49c-13-3.7-25-10-35.6-18.5
	c-7.8-6.3-14.8-13.7-20.8-22.1c-1.9-2.7-3.8-5.5-5.5-8.4c-11-18.5-17.4-40.7-17.4-64.5V1H1427.7z"/>
<path class="st0" d="M1586.2,159.6v-45.1c0-23.8-6.4-46-17.4-64.5c-14.2-23.9-36.1-41.7-61.8-49c-13,3.7-25,10-35.6,18.5
	c-7.8,6.3-14.8,13.7-20.8,22.1c-1.9,2.7-3.8,5.5-5.5,8.4c-11,18.5-17.4,40.7-17.4,64.5v45.1L1586.2,159.6L1586.2,159.6z"/>
<path class="st0" d="M1586.2,1h45.1c23.8,0,46,6.4,64.5,17.4c23.9,14.2,41.7,36.1,48.9,61.8c-3.7,13-10,25-18.5,35.6
	c-6.3,7.8-13.7,14.8-22.1,20.8c-2.7,1.9-5.5,3.8-8.4,5.5c-18.5,11-40.7,17.4-64.5,17.4h-45.1L1586.2,1L1586.2,1z"/>
<path class="st0" d="M1744.8,1v45.1c0,23.8,6.4,46,17.4,64.5c14.2,23.9,36.1,41.7,61.8,49c13-3.7,25-10,35.6-18.5
	c7.8-6.3,14.8-13.7,20.8-22.1c1.9-2.7,3.8-5.5,5.5-8.4c11-18.5,17.4-40.7,17.4-64.5V1H1744.8z"/>
<path class="st0" d="M1903.2,159.6v-45.1c0-23.8,6.4-46,17.4-64.5c14.2-23.9,36.1-41.7,61.8-49c13,3.7,25,10,35.6,18.5
	c7.8,6.3,14.8,13.7,20.8,22.1c1.9,2.7,3.8,5.5,5.5,8.4c11,18.5,17.4,40.7,17.4,64.5v45.1L1903.2,159.6L1903.2,159.6z"/>
<path class="st0" d="M2220.3,1h-45.1c-23.8,0-46,6.4-64.5,17.4c-23.9,14.2-41.7,36.1-48.9,61.8c3.7,13,10,25,18.5,35.6
	c6.3,7.8,13.7,14.8,22.1,20.8c2.7,1.9,5.5,3.8,8.4,5.5c18.5,11,40.7,17.4,64.5,17.4h45.1L2220.3,1L2220.3,1z"/>
<path class="st0" d="M2378.8,1v45.1c0,23.8-6.4,46-17.4,64.5c-14.2,23.9-36.1,41.7-61.8,49c-13-3.7-25-10-35.6-18.5
	c-7.8-6.3-14.8-13.7-20.8-22.1c-1.9-2.7-3.8-5.5-5.5-8.4c-11-18.5-17.4-40.7-17.4-64.5V1H2378.8z"/>
<path class="st0" d="M2537.3,159.6v-45.1c0-23.8-6.4-46-17.4-64.5c-14.2-23.9-36.1-41.7-61.8-49c-13,3.7-25,10-35.6,18.5
	c-7.8,6.3-14.8,13.7-20.8,22.1c-1.9,2.7-3.8,5.5-5.5,8.4c-11,18.5-17.4,40.7-17.4,64.5v45.1L2537.3,159.6L2537.3,159.6z"/>
<path class="st0" d="M1427.7,159.6v45.1c0,23.8-6.4,46-17.4,64.5c-14.2,23.9-36.1,41.7-61.8,49c-13-3.7-25-10-35.6-18.5
	c-7.8-6.3-14.8-13.7-20.8-22.1c-1.9-2.7-3.8-5.5-5.5-8.4c-11-18.5-17.4-40.7-17.4-64.5v-45.1L1427.7,159.6L1427.7,159.6z"/>
<path class="st0" d="M1586.2,318.1V273c0-23.8-6.4-46-17.4-64.5c-14.2-23.9-36.1-41.7-61.8-48.9c-13,3.7-25,10-35.6,18.5
	c-7.8,6.3-14.8,13.7-20.8,22.1c-1.9,2.7-3.8,5.5-5.5,8.4c-11,18.5-17.4,40.7-17.4,64.5v45.1L1586.2,318.1L1586.2,318.1z"/>
<path class="st0" d="M1744.8,159.6h-45.1c-23.8,0-46,6.4-64.5,17.4c-23.9,14.2-41.7,36.1-48.9,61.8c3.7,13,10,25,18.5,35.6
	c6.3,7.8,13.7,14.8,22.1,20.8c2.7,1.9,5.5,3.8,8.4,5.5c18.5,11,40.7,17.4,64.5,17.4h45.1L1744.8,159.6L1744.8,159.6z"/>
<path class="st0" d="M1744.8,159.6v45.1c0,23.8,6.4,46,17.4,64.5c14.2,23.9,36.1,41.7,61.8,49c13-3.7,25-10,35.6-18.5
	c7.8-6.3,14.8-13.7,20.8-22.1c1.9-2.7,3.8-5.5,5.5-8.4c11-18.5,17.4-40.7,17.4-64.5v-45.1L1744.8,159.6L1744.8,159.6z"/>
<path class="st0" d="M1903.2,318.1V273c0-23.8,6.4-46,17.4-64.5c14.2-23.9,36.1-41.7,61.8-48.9c13,3.7,25,10,35.6,18.5
	c7.8,6.3,14.8,13.7,20.8,22.1c1.9,2.7,3.8,5.5,5.5,8.4c11,18.5,17.4,40.7,17.4,64.5v45.1L1903.2,318.1L1903.2,318.1z"/>
<path class="st0" d="M2061.7,159.6h45.1c23.8,0,46,6.4,64.5,17.4c23.9,14.2,41.7,36.1,48.9,61.8c-3.7,13-10,25-18.5,35.6
	c-6.3,7.8-13.7,14.8-22.1,20.8c-2.7,1.9-5.5,3.8-8.4,5.5c-18.5,11-40.7,17.4-64.5,17.4h-45.1L2061.7,159.6L2061.7,159.6z"/>
<path class="st0" d="M2378.8,159.6v45.1c0,23.8-6.4,46-17.4,64.5c-14.2,23.9-36.1,41.7-61.8,49c-13-3.7-25-10-35.6-18.5
	c-7.8-6.3-14.8-13.7-20.8-22.1c-1.9-2.7-3.8-5.5-5.5-8.4c-11-18.5-17.4-40.7-17.4-64.5v-45.1L2378.8,159.6L2378.8,159.6z"/>
<path class="st0" d="M2537.3,318.1V273c0-23.8-6.4-46-17.4-64.5c-14.2-23.9-36.1-41.7-61.8-48.9c-13,3.7-25,10-35.6,18.5
	c-7.8,6.3-14.8,13.7-20.8,22.1c-1.9,2.7-3.8,5.5-5.5,8.4c-11,18.5-17.4,40.7-17.4,64.5v45.1L2537.3,318.1L2537.3,318.1z"/>
<path class="st0" d="M1427.7,318.1v45.1c0,23.8-6.4,46-17.4,64.5c-14.2,23.9-36.1,41.7-61.8,49c-13-3.7-25-10-35.6-18.5
	c-7.8-6.3-14.8-13.7-20.8-22.1c-1.9-2.7-3.8-5.5-5.5-8.4c-11-18.5-17.4-40.7-17.4-64.5v-45.1L1427.7,318.1L1427.7,318.1z"/>
<path class="st0" d="M1586.2,476.6v-45.1c0-23.8-6.4-46-17.4-64.5c-14.2-23.9-36.1-41.7-61.8-49c-13,3.7-25,10-35.6,18.5
	c-7.8,6.3-14.8,13.7-20.8,22.1c-1.9,2.7-3.8,5.5-5.5,8.4c-11,18.5-17.4,40.7-17.4,64.5v45.1L1586.2,476.6L1586.2,476.6z"/>
<path class="st0" d="M1586.2,318.1h45.1c23.8,0,46,6.4,64.5,17.4c23.9,14.2,41.7,36.1,48.9,61.8c-3.7,13-10,25-18.5,35.6
	c-6.3,7.8-13.7,14.8-22.1,20.8c-2.7,1.9-5.5,3.8-8.4,5.5c-18.5,11-40.7,17.4-64.5,17.4h-45.1L1586.2,318.1L1586.2,318.1z"/>
<path class="st0" d="M1744.8,318.1v45.1c0,23.8,6.4,46,17.4,64.5c14.2,23.9,36.1,41.7,61.8,49c13-3.7,25-10,35.6-18.5
	c7.8-6.3,14.8-13.7,20.8-22.1c1.9-2.7,3.8-5.5,5.5-8.4c11-18.5,17.4-40.7,17.4-64.5v-45.1L1744.8,318.1L1744.8,318.1z"/>
<path class="st0" d="M1903.2,476.6v-45.1c0-23.8,6.4-46,17.4-64.5c14.2-23.9,36.1-41.7,61.8-49c13,3.7,25,10,35.6,18.5
	c7.8,6.3,14.8,13.7,20.8,22.1c1.9,2.7,3.8,5.5,5.5,8.4c11,18.5,17.4,40.7,17.4,64.5v45.1L1903.2,476.6L1903.2,476.6z"/>
<path class="st0" d="M2220.3,318.1h-45.1c-23.8,0-46,6.4-64.5,17.4c-23.9,14.2-41.7,36.1-48.9,61.8c3.7,13,10,25,18.5,35.6
	c6.3,7.8,13.7,14.8,22.1,20.8c2.7,1.9,5.5,3.8,8.4,5.5c18.5,11,40.7,17.4,64.5,17.4h45.1L2220.3,318.1L2220.3,318.1z"/>
<path class="st0" d="M2378.8,318.1v45.1c0,23.8-6.4,46-17.4,64.5c-14.2,23.9-36.1,41.7-61.8,49c-13-3.7-25-10-35.6-18.5
	c-7.8-6.3-14.8-13.7-20.8-22.1c-1.9-2.7-3.8-5.5-5.5-8.4c-11-18.5-17.4-40.7-17.4-64.5v-45.1L2378.8,318.1L2378.8,318.1z"/>
<path class="st0" d="M2537.3,476.6v-45.1c0-23.8-6.4-46-17.4-64.5c-14.2-23.9-36.1-41.7-61.8-49c-13,3.7-25,10-35.6,18.5
	c-7.8,6.3-14.8,13.7-20.8,22.1c-1.9,2.7-3.8,5.5-5.5,8.4c-11,18.5-17.4,40.7-17.4,64.5v45.1L2537.3,476.6L2537.3,476.6z"/>
<path class="st0" d="M1427.7,476.6v45.1c0,23.8-6.4,46-17.4,64.5c-14.2,23.9-36.1,41.7-61.8,49c-13-3.7-25-10-35.6-18.5
	c-7.8-6.3-14.8-13.7-20.8-22.1c-1.9-2.7-3.8-5.5-5.5-8.4c-11-18.5-17.4-40.7-17.4-64.5v-45.1L1427.7,476.6L1427.7,476.6z"/>
<path class="st0" d="M1586.2,635.2v-45.1c0-23.8-6.4-46-17.4-64.5c-14.2-23.9-36.1-41.7-61.8-49c-13,3.7-25,10-35.6,18.5
	c-7.8,6.3-14.8,13.7-20.8,22.1c-1.9,2.7-3.8,5.5-5.5,8.4c-11,18.5-17.4,40.7-17.4,64.5v45.1L1586.2,635.2L1586.2,635.2z"/>
<path class="st0" d="M1744.8,476.6h-45.1c-23.8,0-46,6.4-64.5,17.4c-23.9,14.2-41.7,36.1-48.9,61.8c3.7,13,10,25,18.5,35.6
	c6.3,7.8,13.7,14.8,22.1,20.8c2.7,1.9,5.5,3.8,8.4,5.5c18.5,11,40.7,17.4,64.5,17.4h45.1L1744.8,476.6L1744.8,476.6z"/>
<path class="st0" d="M1744.8,476.6v45.1c0,23.8,6.4,46,17.4,64.5c14.2,23.9,36.1,41.7,61.8,49c13-3.7,25-10,35.6-18.5
	c7.8-6.3,14.8-13.7,20.8-22.1c1.9-2.7,3.8-5.5,5.5-8.4c11-18.5,17.4-40.7,17.4-64.5v-45.1L1744.8,476.6L1744.8,476.6z"/>
<path class="st0" d="M1903.2,635.2v-45.1c0-23.8,6.4-46,17.4-64.5c14.2-23.9,36.1-41.7,61.8-49c13,3.7,25,10,35.6,18.5
	c7.8,6.3,14.8,13.7,20.8,22.1c1.9,2.7,3.8,5.5,5.5,8.4c11,18.5,17.4,40.7,17.4,64.5v45.1L1903.2,635.2L1903.2,635.2z"/>
<path class="st0" d="M2061.7,476.6h45.1c23.8,0,46,6.4,64.5,17.4c23.9,14.2,41.7,36.1,48.9,61.8c-3.7,13-10,25-18.5,35.6
	c-6.3,7.8-13.7,14.8-22.1,20.8c-2.7,1.9-5.5,3.8-8.4,5.5c-18.5,11-40.7,17.4-64.5,17.4h-45.1L2061.7,476.6L2061.7,476.6z"/>
<path class="st0" d="M2378.8,476.6v45.1c0,23.8-6.4,46-17.4,64.5c-14.2,23.9-36.1,41.7-61.8,49c-13-3.7-25-10-35.6-18.5
	c-7.8-6.3-14.8-13.7-20.8-22.1c-1.9-2.7-3.8-5.5-5.5-8.4c-11-18.5-17.4-40.7-17.4-64.5v-45.1L2378.8,476.6L2378.8,476.6z"/>
<path class="st0" d="M2537.3,635.2v-45.1c0-23.8-6.4-46-17.4-64.5c-14.2-23.9-36.1-41.7-61.8-49c-13,3.7-25,10-35.6,18.5
	c-7.8,6.3-14.8,13.7-20.8,22.1c-1.9,2.7-3.8,5.5-5.5,8.4c-11,18.5-17.4,40.7-17.4,64.5v45.1L2537.3,635.2L2537.3,635.2z"/>
<path class="st0" d="M1427.7,635.2v45.1c0,23.8-6.4,46-17.4,64.5c-14.2,23.9-36.1,41.7-61.8,49c-13-3.7-25-10-35.6-18.5
	c-7.8-6.3-14.8-13.7-20.8-22.1c-1.9-2.7-3.8-5.5-5.5-8.4c-11-18.5-17.4-40.7-17.4-64.5v-45.1L1427.7,635.2L1427.7,635.2z"/>
<path class="st0" d="M1586.2,793.7v-45.1c0-23.8-6.4-46-17.4-64.5c-14.2-23.9-36.1-41.7-61.8-49c-13,3.7-25,10-35.6,18.5
	c-7.8,6.3-14.8,13.7-20.8,22.1c-1.9,2.7-3.8,5.5-5.5,8.4c-11,18.5-17.4,40.7-17.4,64.5v45.1L1586.2,793.7L1586.2,793.7z"/>
<path class="st0" d="M1586.2,635.2h45.1c23.8,0,46,6.4,64.5,17.4c23.9,14.2,41.7,36.1,48.9,61.8c-3.7,13-10,25-18.5,35.6
	c-6.3,7.8-13.7,14.8-22.1,20.8c-2.7,1.9-5.5,3.8-8.4,5.5c-18.5,11-40.7,17.4-64.5,17.4h-45.1L1586.2,635.2L1586.2,635.2z"/>
<path class="st0" d="M1744.8,635.2v45.1c0,23.8,6.4,46,17.4,64.5c14.2,23.9,36.1,41.7,61.8,49c13-3.7,25-10,35.6-18.5
	c7.8-6.3,14.8-13.7,20.8-22.1c1.9-2.7,3.8-5.5,5.5-8.4c11-18.5,17.4-40.7,17.4-64.5v-45.1L1744.8,635.2L1744.8,635.2z"/>
<path class="st0" d="M1903.2,793.7v-45.1c0-23.8,6.4-46,17.4-64.5c14.2-23.9,36.1-41.7,61.8-49c13,3.7,25,10,35.6,18.5
	c7.8,6.3,14.8,13.7,20.8,22.1c1.9,2.7,3.8,5.5,5.5,8.4c11,18.5,17.4,40.7,17.4,64.5v45.1L1903.2,793.7L1903.2,793.7z"/>
<path class="st0" d="M2220.3,635.2h-45.1c-23.8,0-46,6.4-64.5,17.4c-23.9,14.2-41.7,36.1-48.9,61.8c3.7,13,10,25,18.5,35.6
	c6.3,7.8,13.7,14.8,22.1,20.8c2.7,1.9,5.5,3.8,8.4,5.5c18.5,11,40.7,17.4,64.5,17.4h45.1L2220.3,635.2L2220.3,635.2z"/>
<path class="st0" d="M2378.8,635.2v45.1c0,23.8-6.4,46-17.4,64.5c-14.2,23.9-36.1,41.7-61.8,49c-13-3.7-25-10-35.6-18.5
	c-7.8-6.3-14.8-13.7-20.8-22.1c-1.9-2.7-3.8-5.5-5.5-8.4c-11-18.5-17.4-40.7-17.4-64.5v-45.1L2378.8,635.2L2378.8,635.2z"/>
<path class="st0" d="M2537.3,793.7v-45.1c0-23.8-6.4-46-17.4-64.5c-14.2-23.9-36.1-41.7-61.8-49c-13,3.7-25,10-35.6,18.5
	c-7.8,6.3-14.8,13.7-20.8,22.1c-1.9,2.7-3.8,5.5-5.5,8.4c-11,18.5-17.4,40.7-17.4,64.5v45.1L2537.3,793.7L2537.3,793.7z"/>
<path class="st0" d="M1427.7,793.7v45.1c0,23.8-6.4,46-17.4,64.5c-14.2,23.9-36.1,41.7-61.8,49c-13-3.7-25-10-35.6-18.5
	c-7.8-6.3-14.8-13.7-20.8-22.1c-1.9-2.7-3.8-5.5-5.5-8.4c-11-18.5-17.4-40.7-17.4-64.5v-45.1L1427.7,793.7L1427.7,793.7z"/>
<path class="st0" d="M1586.2,952.3v-45.1c0-23.8-6.4-46-17.4-64.5c-14.2-23.9-36.1-41.7-61.8-49c-13,3.7-25,10-35.6,18.5
	c-7.8,6.3-14.8,13.7-20.8,22.1c-1.9,2.7-3.8,5.5-5.5,8.4c-11,18.5-17.4,40.7-17.4,64.5v45.1L1586.2,952.3L1586.2,952.3z"/>
<path class="st0" d="M1744.8,793.7h-45.1c-23.8,0-46,6.4-64.5,17.4c-23.9,14.2-41.7,36.1-48.9,61.8c3.7,13,10,25,18.5,35.6
	c6.3,7.8,13.7,14.8,22.1,20.8c2.7,1.9,5.5,3.8,8.4,5.5c18.5,11,40.7,17.4,64.5,17.4h45.1L1744.8,793.7L1744.8,793.7z"/>
<path class="st0" d="M1744.8,793.7v45.1c0,23.8,6.4,46,17.4,64.5c14.2,23.9,36.1,41.7,61.8,49c13-3.7,25-10,35.6-18.5
	c7.8-6.3,14.8-13.7,20.8-22.1c1.9-2.7,3.8-5.5,5.5-8.4c11-18.5,17.4-40.7,17.4-64.5v-45.1L1744.8,793.7L1744.8,793.7z"/>
<path class="st0" d="M1903.2,952.3v-45.1c0-23.8,6.4-46,17.4-64.5c14.2-23.9,36.1-41.7,61.8-49c13,3.7,25,10,35.6,18.5
	c7.8,6.3,14.8,13.7,20.8,22.1c1.9,2.7,3.8,5.5,5.5,8.4c11,18.5,17.4,40.7,17.4,64.5v45.1L1903.2,952.3L1903.2,952.3z"/>
<path class="st0" d="M2061.7,793.7h45.1c23.8,0,46,6.4,64.5,17.4c23.9,14.2,41.7,36.1,48.9,61.8c-3.7,13-10,25-18.5,35.6
	c-6.3,7.8-13.7,14.8-22.1,20.8c-2.7,1.9-5.5,3.8-8.4,5.5c-18.5,11-40.7,17.4-64.5,17.4h-45.1L2061.7,793.7L2061.7,793.7z"/>
<path class="st0" d="M2378.8,793.7v45.1c0,23.8-6.4,46-17.4,64.5c-14.2,23.9-36.1,41.7-61.8,49c-13-3.7-25-10-35.6-18.5
	c-7.8-6.3-14.8-13.7-20.8-22.1c-1.9-2.7-3.8-5.5-5.5-8.4c-11-18.5-17.4-40.7-17.4-64.5v-45.1L2378.8,793.7L2378.8,793.7z"/>
<path class="st0" d="M2537.3,952.3v-45.1c0-23.8-6.4-46-17.4-64.5c-14.2-23.9-36.1-41.7-61.8-49c-13,3.7-25,10-35.6,18.5
	c-7.8,6.3-14.8,13.7-20.8,22.1c-1.9,2.7-3.8,5.5-5.5,8.4c-11,18.5-17.4,40.7-17.4,64.5v45.1L2537.3,952.3L2537.3,952.3z"/>
<path class="st0" d="M1427.7,952.3v45.1c0,23.8-6.4,46-17.4,64.5c-14.2,23.9-36.1,41.7-61.8,48.9c-13-3.7-25-10-35.6-18.5
	c-7.8-6.3-14.8-13.7-20.8-22.1c-1.9-2.7-3.8-5.5-5.5-8.4c-11-18.5-17.4-40.7-17.4-64.5v-45.1L1427.7,952.3L1427.7,952.3z"/>
<path class="st0" d="M1586.2,1110.8v-45.1c0-23.8-6.4-46-17.4-64.5c-14.2-23.9-36.1-41.7-61.8-49c-13,3.7-25,10-35.6,18.5
	c-7.8,6.3-14.8,13.7-20.8,22.1c-1.9,2.7-3.8,5.5-5.5,8.4c-11,18.5-17.4,40.7-17.4,64.5v45.1L1586.2,1110.8L1586.2,1110.8z"/>
<path class="st0" d="M1586.2,952.3h45.1c23.8,0,46,6.4,64.5,17.4c23.9,14.2,41.7,36.1,48.9,61.8c-3.7,13-10,25-18.5,35.6
	c-6.3,7.8-13.7,14.8-22.1,20.8c-2.7,1.9-5.5,3.8-8.4,5.5c-18.5,11-40.7,17.4-64.5,17.4h-45.1L1586.2,952.3L1586.2,952.3z"/>
<path class="st0" d="M1744.8,952.3v45.1c0,23.8,6.4,46,17.4,64.5c14.2,23.9,36.1,41.7,61.8,48.9c13-3.7,25-10,35.6-18.5
	c7.8-6.3,14.8-13.7,20.8-22.1c1.9-2.7,3.8-5.5,5.5-8.4c11-18.5,17.4-40.7,17.4-64.5v-45.1L1744.8,952.3L1744.8,952.3z"/>
<path class="st0" d="M1903.2,1110.8v-45.1c0-23.8,6.4-46,17.4-64.5c14.2-23.9,36.1-41.7,61.8-49c13,3.7,25,10,35.6,18.5
	c7.8,6.3,14.8,13.7,20.8,22.1c1.9,2.7,3.8,5.5,5.5,8.4c11,18.5,17.4,40.7,17.4,64.5v45.1L1903.2,1110.8L1903.2,1110.8z"/>
<path class="st0" d="M2220.3,952.3h-45.1c-23.8,0-46,6.4-64.5,17.4c-23.9,14.2-41.7,36.1-48.9,61.8c3.7,13,10,25,18.5,35.6
	c6.3,7.8,13.7,14.8,22.1,20.8c2.7,1.9,5.5,3.8,8.4,5.5c18.5,11,40.7,17.4,64.5,17.4h45.1L2220.3,952.3L2220.3,952.3z"/>
<path class="st0" d="M2378.8,952.3v45.1c0,23.8-6.4,46-17.4,64.5c-14.2,23.9-36.1,41.7-61.8,48.9c-13-3.7-25-10-35.6-18.5
	c-7.8-6.3-14.8-13.7-20.8-22.1c-1.9-2.7-3.8-5.5-5.5-8.4c-11-18.5-17.4-40.7-17.4-64.5v-45.1L2378.8,952.3L2378.8,952.3z"/>
<path class="st0" d="M2537.3,1110.8v-45.1c0-23.8-6.4-46-17.4-64.5c-14.2-23.9-36.1-41.7-61.8-49c-13,3.7-25,10-35.6,18.5
	c-7.8,6.3-14.8,13.7-20.8,22.1c-1.9,2.7-3.8,5.5-5.5,8.4c-11,18.5-17.4,40.7-17.4,64.5v45.1L2537.3,1110.8L2537.3,1110.8z"/>
<path class="st0" d="M1427.7,1110.8v45.1c0,23.8-6.4,46-17.4,64.5c-14.2,23.9-36.1,41.7-61.8,48.9c-13-3.7-25-10-35.6-18.5
	c-7.8-6.3-14.8-13.7-20.8-22.1c-1.9-2.7-3.8-5.5-5.5-8.4c-11-18.5-17.4-40.7-17.4-64.5v-45.1L1427.7,1110.8L1427.7,1110.8z"/>
<path class="st0" d="M1586.2,1269.3v-45.1c0-23.8-6.4-46-17.4-64.5c-14.2-23.9-36.1-41.7-61.8-48.9c-13,3.7-25,10-35.6,18.5
	c-7.8,6.3-14.8,13.7-20.8,22.1c-1.9,2.7-3.8,5.5-5.5,8.4c-11,18.5-17.4,40.7-17.4,64.5v45.1L1586.2,1269.3L1586.2,1269.3z"/>
<path class="st0" d="M1744.8,1110.8h-45.1c-23.8,0-46,6.4-64.5,17.4c-23.9,14.2-41.7,36.1-48.9,61.8c3.7,13,10,25,18.5,35.6
	c6.3,7.8,13.7,14.8,22.1,20.8c2.7,1.9,5.5,3.8,8.4,5.5c18.5,11,40.7,17.4,64.5,17.4h45.1L1744.8,1110.8L1744.8,1110.8z"/>
<path class="st0" d="M1744.8,1110.8v45.1c0,23.8,6.4,46,17.4,64.5c14.2,23.9,36.1,41.7,61.8,48.9c13-3.7,25-10,35.6-18.5
	c7.8-6.3,14.8-13.7,20.8-22.1c1.9-2.7,3.8-5.5,5.5-8.4c11-18.5,17.4-40.7,17.4-64.5v-45.1L1744.8,1110.8L1744.8,1110.8z"/>
<path class="st0" d="M1903.2,1269.3v-45.1c0-23.8,6.4-46,17.4-64.5c14.2-23.9,36.1-41.7,61.8-48.9c13,3.7,25,10,35.6,18.5
	c7.8,6.3,14.8,13.7,20.8,22.1c1.9,2.7,3.8,5.5,5.5,8.4c11,18.5,17.4,40.7,17.4,64.5v45.1L1903.2,1269.3L1903.2,1269.3z"/>
<path class="st0" d="M2061.7,1110.8h45.1c23.8,0,46,6.4,64.5,17.4c23.9,14.2,41.7,36.1,48.9,61.8c-3.7,13-10,25-18.5,35.6
	c-6.3,7.8-13.7,14.8-22.1,20.8c-2.7,1.9-5.5,3.8-8.4,5.5c-18.5,11-40.7,17.4-64.5,17.4h-45.1L2061.7,1110.8L2061.7,1110.8z"/>
<path class="st0" d="M2378.8,1110.8v45.1c0,23.8-6.4,46-17.4,64.5c-14.2,23.9-36.1,41.7-61.8,48.9c-13-3.7-25-10-35.6-18.5
	c-7.8-6.3-14.8-13.7-20.8-22.1c-1.9-2.7-3.8-5.5-5.5-8.4c-11-18.5-17.4-40.7-17.4-64.5v-45.1L2378.8,1110.8L2378.8,1110.8z"/>
<path class="st0" d="M2537.3,1269.3v-45.1c0-23.8-6.4-46-17.4-64.5c-14.2-23.9-36.1-41.7-61.8-48.9c-13,3.7-25,10-35.6,18.5
	c-7.8,6.3-14.8,13.7-20.8,22.1c-1.9,2.7-3.8,5.5-5.5,8.4c-11,18.5-17.4,40.7-17.4,64.5v45.1L2537.3,1269.3L2537.3,1269.3z"/>
</svg>
